<svg width="95" height="94" viewBox="0 0 95 94" fill="none" xmlns="http://www.w3.org/2000/svg">
<g clip-path="url(#clip0_5039_2909)">
<path d="M81.2224 0.000488281H75.4677C75.0558 0.000488281 74.7217 0.334627 74.7217 0.746488C74.7217 1.15835 75.0558 1.49249 75.4677 1.49249H80.4764V6.50096C80.4764 6.91283 80.8105 7.24696 81.2224 7.24696C81.6343 7.24696 81.9684 6.91283 81.9684 6.50096V0.746519C81.9684 0.334658 81.6346 0.000488281 81.2224 0.000488281Z" fill="#CAFF59"/>
<path d="M81.2224 86.7544C80.8105 86.7544 80.4764 87.0885 80.4764 87.5004V92.5089H75.4677C75.0558 92.5089 74.7217 92.843 74.7217 93.2549C74.7217 93.6667 75.0558 94.0009 75.4677 94.0009H81.2224C81.6343 94.0009 81.9684 93.6667 81.9684 93.2549V87.5004C81.9684 87.0883 81.6346 86.7544 81.2224 86.7544Z" fill="#CAFF59"/>
<path d="M19.5349 92.5118H14.5262V87.5033C14.5262 87.0915 14.192 86.7573 13.7802 86.7573C13.3683 86.7573 13.0342 87.0915 13.0342 87.5033V93.2578C13.0342 93.6696 13.3683 94.0038 13.7802 94.0038H19.5349C19.9468 94.0038 20.2809 93.6696 20.2809 93.2578C20.2809 92.8456 19.9468 92.5118 19.5349 92.5118Z" fill="#CAFF59"/>
<path d="M81.2226 9.37744C80.8107 9.37744 80.4766 9.71158 80.4766 10.1234V17.339C80.4766 17.7508 80.8107 18.085 81.2226 18.085C81.6344 18.085 81.9686 17.7508 81.9686 17.339V10.1234C81.9686 9.71158 81.6347 9.37744 81.2226 9.37744Z" fill="#CAFF59"/>
<path d="M81.2226 20.4678C80.8107 20.4678 80.4766 20.8019 80.4766 21.2138V28.4293C80.4766 28.8412 80.8107 29.1753 81.2226 29.1753C81.6344 29.1753 81.9686 28.8412 81.9686 28.4293V21.2138C81.9686 20.8016 81.6347 20.4678 81.2226 20.4678Z" fill="#CAFF59"/>
<path d="M81.2226 31.5566C80.8107 31.5566 80.4766 31.8908 80.4766 32.3026V39.5182C80.4766 39.93 80.8107 40.2642 81.2226 40.2642C81.6344 40.2642 81.9686 39.93 81.9686 39.5182V32.3026C81.9686 31.8908 81.6347 31.5566 81.2226 31.5566Z" fill="#CAFF59"/>
<path d="M81.2226 42.646C80.8107 42.646 80.4766 42.9801 80.4766 43.392V50.6075C80.4766 51.0194 80.8107 51.3535 81.2226 51.3535C81.6344 51.3535 81.9686 51.0194 81.9686 50.6075V43.392C81.9686 42.9801 81.6347 42.646 81.2226 42.646Z" fill="#CAFF59"/>
<path d="M81.2226 53.7358C80.8107 53.7358 80.4766 54.07 80.4766 54.4818V61.6974C80.4766 62.1092 80.8107 62.4434 81.2226 62.4434C81.6344 62.4434 81.9686 62.1092 81.9686 61.6974V54.4818C81.9686 54.07 81.6347 53.7358 81.2226 53.7358Z" fill="#CAFF59"/>
<path d="M81.2226 64.8257C80.8107 64.8257 80.4766 65.1598 80.4766 65.5717V72.7872C80.4766 73.1991 80.8107 73.5332 81.2226 73.5332C81.6344 73.5332 81.9686 73.1991 81.9686 72.7872V65.5717C81.9686 65.1595 81.6347 64.8257 81.2226 64.8257Z" fill="#CAFF59"/>
<path d="M81.2226 75.9146C80.8107 75.9146 80.4766 76.2487 80.4766 76.6605V83.8761C80.4766 84.2879 80.8107 84.6221 81.2226 84.6221C81.6344 84.6221 81.9686 84.2879 81.9686 83.8761V76.6605C81.9686 76.2487 81.6347 75.9146 81.2226 75.9146Z" fill="#CAFF59"/>
<path d="M13.7799 29.1753C14.1918 29.1753 14.5259 28.8412 14.5259 28.4293V21.2138C14.5259 20.8019 14.1918 20.4678 13.7799 20.4678C13.3681 20.4678 13.0339 20.8019 13.0339 21.2138V28.4293C13.0339 28.8412 13.3678 29.1753 13.7799 29.1753Z" fill="#CAFF59"/>
<path d="M13.7799 40.2651C14.1918 40.2651 14.5259 39.931 14.5259 39.5191V32.3036C14.5259 31.8918 14.1918 31.5576 13.7799 31.5576C13.3681 31.5576 13.0339 31.8918 13.0339 32.3036V39.5191C13.0339 39.931 13.3678 40.2651 13.7799 40.2651Z" fill="#CAFF59"/>
<path d="M13.7799 51.354C14.1918 51.354 14.5259 51.0199 14.5259 50.608V43.3925C14.5259 42.9806 14.1918 42.6465 13.7799 42.6465C13.3681 42.6465 13.0339 42.9806 13.0339 43.3925V50.608C13.0339 51.0202 13.3678 51.354 13.7799 51.354Z" fill="#CAFF59"/>
<path d="M13.7799 62.4434C14.1918 62.4434 14.5259 62.1092 14.5259 61.6974V54.4818C14.5259 54.07 14.1918 53.7358 13.7799 53.7358C13.3681 53.7358 13.0339 54.07 13.0339 54.4818V61.6974C13.0339 62.1092 13.3678 62.4434 13.7799 62.4434Z" fill="#CAFF59"/>
<path d="M13.7799 73.5332C14.1918 73.5332 14.5259 73.1991 14.5259 72.7872V65.5717C14.5259 65.1598 14.1918 64.8257 13.7799 64.8257C13.3681 64.8257 13.0339 65.1598 13.0339 65.5717V72.7872C13.0339 73.1991 13.3678 73.5332 13.7799 73.5332Z" fill="#CAFF59"/>
<path d="M13.7799 84.6235C14.1918 84.6235 14.5259 84.2894 14.5259 83.8775V76.662C14.5259 76.2502 14.1918 75.916 13.7799 75.916C13.3681 75.916 13.0339 76.2502 13.0339 76.662V83.8775C13.0339 84.2894 13.3678 84.6235 13.7799 84.6235Z" fill="#CAFF59"/>
<path d="M71.4176 92.5117H65.1479C64.736 92.5117 64.4019 92.8459 64.4019 93.2577C64.4019 93.6696 64.736 94.0037 65.1479 94.0037H71.4176C71.8294 94.0037 72.1636 93.6696 72.1636 93.2577C72.1636 92.8456 71.8294 92.5117 71.4176 92.5117Z" fill="#CAFF59"/>
<path d="M61.0267 92.5117H54.757C54.3451 92.5117 54.011 92.8459 54.011 93.2577C54.011 93.6696 54.3451 94.0037 54.757 94.0037H61.0267C61.4386 94.0037 61.7727 93.6696 61.7727 93.2577C61.7727 92.8456 61.4389 92.5117 61.0267 92.5117Z" fill="#CAFF59"/>
<path d="M50.6349 92.5117H44.3651C43.9533 92.5117 43.6191 92.8459 43.6191 93.2577C43.6191 93.6696 43.9533 94.0037 44.3651 94.0037H50.6349C51.0467 94.0037 51.3809 93.6696 51.3809 93.2577C51.3809 92.8456 51.0467 92.5117 50.6349 92.5117Z" fill="#CAFF59"/>
<path d="M40.2433 92.5117H33.9735C33.5617 92.5117 33.2275 92.8459 33.2275 93.2577C33.2275 93.6696 33.5617 94.0037 33.9735 94.0037H40.2433C40.6551 94.0037 40.9893 93.6696 40.9893 93.2577C40.9893 92.8456 40.6554 92.5117 40.2433 92.5117Z" fill="#CAFF59"/>
<path d="M29.8522 92.5117H23.5822C23.1703 92.5117 22.8362 92.8459 22.8362 93.2577C22.8362 93.6696 23.1703 94.0037 23.5822 94.0037H29.8522C30.2641 94.0037 30.5982 93.6696 30.5982 93.2577C30.5982 92.8456 30.2641 92.5117 29.8522 92.5117Z" fill="#CAFF59"/>
<path d="M71.4176 0H65.1479C64.736 0 64.4019 0.334139 64.4019 0.746C64.4019 1.15786 64.736 1.492 65.1479 1.492H71.4176C71.8294 1.492 72.1636 1.15786 72.1636 0.746C72.1636 0.334139 71.8294 0 71.4176 0Z" fill="#CAFF59"/>
<path d="M61.0267 0H54.757C54.3451 0 54.011 0.334139 54.011 0.746C54.011 1.15786 54.3451 1.492 54.757 1.492H61.0267C61.4386 1.492 61.7727 1.15786 61.7727 0.746C61.7727 0.334139 61.4389 0 61.0267 0Z" fill="#CAFF59"/>
<path d="M50.6349 0H44.3651C43.9533 0 43.6191 0.334139 43.6191 0.746C43.6191 1.15786 43.9533 1.492 44.3651 1.492H50.6349C51.0467 1.492 51.3809 1.15786 51.3809 0.746C51.3809 0.334139 51.0467 0 50.6349 0Z" fill="#CAFF59"/>
<path d="M40.2433 0H33.9735C33.5617 0 33.2275 0.334139 33.2275 0.746C33.2275 1.15786 33.5617 1.492 33.9735 1.492H40.2433C40.6551 1.492 40.9893 1.15786 40.9893 0.746C40.9893 0.334139 40.6554 0 40.2433 0Z" fill="#CAFF59"/>
<path d="M13.7806 18.0858C14.1924 18.0858 14.5266 17.7517 14.5266 17.3398V14.4776H26.7176C27.1294 14.4776 27.4636 14.1434 27.4636 13.7316L27.4633 1.492H29.8521C30.264 1.492 30.5981 1.15786 30.5981 0.746C30.5981 0.334139 30.264 0 29.8521 0H26.7172C26.5189 0 26.3286 0.0789443 26.1888 0.219396L13.2512 13.2055C13.112 13.3453 13.0337 13.5347 13.0337 13.7321V17.3397C13.0337 17.7519 13.3678 18.0861 13.78 18.0861L13.7806 18.0858ZM25.9716 2.55152V12.9855H15.5767L25.9716 2.55152Z" fill="#CAFF59"/>
</g>
<defs>
<clipPath id="clip0_5039_2909">
<rect width="94" height="94" fill="white" transform="translate(0.5)"/>
</clipPath>
</defs>
</svg>
